<?xml version="1.0" encoding="UTF-8"?>
<svg width="193px" height="48px" viewBox="0 0 193 48" version="1.1" xmlns="http://www.w3.org/2000/svg" xmlns:xlink="http://www.w3.org/1999/xlink">
    <!-- Generator: Sketch 55 (78076) - https://sketchapp.com -->
    <title>Group 40</title>
    <desc>Created with Sketch.</desc>
    <g id="Page-1" stroke="none" stroke-width="1" fill="none" fill-rule="evenodd">
        <g id="Group-40">
            <g id="logo">
                <path d="M48,23.9997501 C48,37.2545892 37.2549771,48 23.9995002,48 C10.7445231,48 0,37.2545892 0,23.9997501 C0,10.7454108 10.7445231,0 23.9995002,0 C37.2549771,0 48,10.7454108 48,23.9997501" id="Fill-1" fill="#E0613C"></path>
                <path d="M14.5245901,26.1124948 C14.5592057,23.3101856 16.5515784,20.9730309 19.1462618,20.4623505 L18.4663133,24.1509278 C18.3466424,24.7877938 18.2769168,25.4429691 18.2680156,26.1124948 C18.2423012,28.2150928 18.7956556,30.1806186 19.775276,31.8536907 C16.8176237,31.6973196 14.4860185,29.1859794 14.5245901,26.1124948 M29.1452134,15.0947629 C27.756635,15.0947629 26.4254195,15.3698969 25.1995341,15.8647423 L25.377557,14.8997938 C25.377557,14.8997938 26.5767389,9.71430928 21.6613295,9.40206186 C21.2691846,9.40404124 21.1465466,9.60593814 21.0961068,9.87810309 L20.1337943,15.1016907 C18.7951611,15.12 17.5124074,15.3867216 16.3280608,15.8647423 L16.5060836,14.8997938 C16.5060836,14.8997938 17.7052655,9.71430928 12.7898561,9.40206186 C12.3996893,9.40354639 12.2760623,9.60395876 12.226117,9.87364948 L9.59483995,24.1509278 C9.47516902,24.7877938 9.40445437,25.4429691 9.39654225,26.1124948 C9.32088252,32.1872165 14.0765659,37.129732 19.9978046,37.129732 C25.9205268,37.129732 30.7998371,32.1872165 30.8759914,26.1124948 C30.8962662,24.473567 30.4986818,23.3665979 29.7925244,22.7203299 C28.844058,21.8533608 27.1810277,22.0250722 26.3814082,23.0974021 C25.6416243,24.0875876 25.7543721,25.6037938 25.747449,26.1124948 C25.7311302,27.4352165 25.2742048,28.6515464 24.5284868,29.6249072 C23.8065051,28.6515464 23.3802392,27.4352165 23.396558,26.1124948 C23.4361186,22.9380619 25.9862964,20.3559588 29.0799384,20.3559588 C32.1740749,20.3559588 34.6589775,22.9380619 34.6199114,26.1124948 C34.5937025,28.1774845 33.5047959,29.9910928 31.8951723,31.0065155 C31.7839081,31.0762887 31.4956099,31.2489897 31.2686307,31.4974021 C31.0742891,31.7106804 30.9353323,31.9991753 30.8730243,32.1134845 C29.9210964,33.868701 28.5775182,35.3715464 26.9683892,36.499299 C26.8769052,36.5636289 26.7132231,36.6878351 26.7646519,36.8145155 C26.8121247,36.9308041 27.0747084,36.9733608 27.1894343,36.9916701 C27.7363601,37.0822268 28.2976267,37.129732 28.870267,37.129732 C34.7915057,37.129732 39.671805,32.1872165 39.7474648,26.1124948 C39.823619,20.0377732 35.0679356,15.0947629 29.1452134,15.0947629" id="Fill-4" fill="#FEFEFE"></path>
            </g>
            <g id="Group-2" transform="translate(73.000000, 8.000000)" fill="#393E41" fill-rule="nonzero">
                <path d="M0,25.7303264 C0,24.3316563 0.271017698,23.1062044 0.813061224,22.0539339 C1.35510475,21.0016634 2.13223984,20.1879633 3.1444898,19.6128092 C4.15673976,19.0376551 5.34856457,18.7500824 6.72,18.7500824 C7.79102576,18.7500824 8.75101616,18.9592262 9.6,19.3775201 C10.4489838,19.7958139 11.1346913,20.3840309 11.6571429,21.1421885 C12.1795944,21.9003461 12.4930607,22.7761358 12.597551,23.7695837 L9.65877551,23.7695837 C9.48897874,22.9852827 9.13306393,22.367655 8.59102041,21.9166819 C8.04897688,21.4657088 7.37306527,21.2402256 6.56326531,21.2402256 C5.46611696,21.2402256 4.59755422,21.6519775 3.95755102,22.4754935 C3.31754782,23.2990096 2.99755102,24.3839431 2.99755102,25.7303264 C2.99755102,27.0636381 3.31754782,28.1453037 3.95755102,28.9753556 C4.59755422,29.8054075 5.46611696,30.2204272 6.56326531,30.2204272 C7.37306527,30.2204272 8.04897688,29.9949441 8.59102041,29.543971 C9.13306393,29.0929979 9.48897874,28.4753702 9.65877551,27.6910691 L12.3682531,28.8386042 C12.2053496,29.373623 11.9683136,29.8669078 11.6571429,30.3184644 C11.1346913,31.076622 10.4489838,31.6648389 9.6,32.0831328 C8.75101616,32.5014267 7.79102576,32.7105705 6.72,32.7105705 C5.34856457,32.7105705 4.15673976,32.4229978 3.1444898,31.8478437 C2.13223984,31.2726896 1.35510475,30.4589895 0.813061224,29.406719 C0.271017698,28.3544485 0,27.1289966 0,25.7303264 Z M19.0040816,32.7105705 C17.9461172,32.7105705 17.0155142,32.4981588 16.2122449,32.0733291 C15.4089756,31.6484994 14.7885736,31.0439431 14.3510204,30.2596421 C13.9134672,29.4753411 13.6946939,28.5734085 13.6946939,27.5538172 C13.6946939,26.5342259 13.9134672,25.6322932 14.3510204,24.8479922 C14.7885736,24.0636912 15.4089756,23.4591349 16.2122449,23.0343052 C17.0155142,22.6094755 17.9461172,22.3970638 19.0040816,22.3970638 C20.0620461,22.3970638 20.992649,22.6094755 21.7959184,23.0343052 C22.5991877,23.4591349 23.2195896,24.0636912 23.6571429,24.8479922 C24.0946961,25.6322932 24.3134694,26.5342259 24.3134694,27.5538172 C24.3134694,28.5864801 24.0946961,29.4916806 23.6571429,30.2694458 C23.2195896,31.047211 22.5991877,31.6484994 21.7959184,32.0733291 C20.992649,32.4981588 20.0620461,32.7105705 19.0040816,32.7105705 Z M19.0040816,30.4557164 C19.7746977,30.4557164 20.3853039,30.1877509 20.8359184,29.6518119 C21.2865329,29.1158728 21.5118367,28.4165483 21.5118367,27.5538172 C21.5118367,26.6910861 21.2865329,25.9917615 20.8359184,25.4558225 C20.3853039,24.9198834 19.7746977,24.651918 19.0040816,24.651918 C18.2465268,24.651918 17.6424512,24.9198834 17.1918367,25.4558225 C16.7412222,25.9917615 16.5159184,26.6910861 16.5159184,27.5538172 C16.5159184,28.4165483 16.7412222,29.1158728 17.1918367,29.6518119 C17.6424512,30.1877509 18.2465268,30.4557164 19.0040816,30.4557164 Z M37.9493878,22.3970638 C39.0334748,22.3970638 39.9150986,22.7565297 40.5942857,23.4754723 C41.2734728,24.1944149 41.6130612,25.390456 41.6130612,27.0636315 L41.6130612,32.6125333 L38.8506122,32.6125333 L38.8506122,26.9655943 C38.8506122,25.4362074 38.2693936,24.6715254 37.1069388,24.6715254 C36.5061194,24.6715254 36.022859,24.883937 35.6571429,25.3087668 C35.2914267,25.7335965 35.1085714,26.3250813 35.1085714,27.0832389 L35.1085714,32.6125333 L32.3461224,32.6125333 L32.3461224,26.9655943 C32.2887623,25.8423952 31.89985,24.956675 30.7002103,24.8211813 C30.438666,24.7916411 30.034652,24.7961997 29.5340526,24.9201743 C29.3472578,24.9664345 29.0372675,25.0740909 28.6040816,25.2431434 C28.6040816,25.9862214 28.6040816,26.6061224 28.6040816,27.1028463 L28.6040816,32.6125333 L25.8416327,32.6125333 L25.8416327,23.2588947 C27.0655028,22.9992859 27.9467213,22.8201034 28.485288,22.7213472 C29.2931382,22.573213 30.0320435,22.3969908 30.7739138,22.3969908 C32.2106557,22.3969908 33.8087245,22.9770574 34.4455953,24.1177399 C34.8113114,23.5687292 35.327344,23.1323438 35.9216327,22.838231 C36.5159213,22.5441181 37.1918329,22.3970638 37.9493878,22.3970638 Z M55.4655005,22.3964112 C56.5495876,22.3964112 57.4312114,22.7558771 58.1103985,23.4748197 C58.7895856,24.1937622 59.129174,25.3898033 59.129174,27.0629788 L59.129174,32.6118807 L56.366725,32.6118807 L56.366725,26.9649417 C56.366725,25.4355547 55.7855064,24.6708727 54.6230516,24.6708727 C54.0222322,24.6708727 53.5389718,24.8832844 53.1732556,25.3081141 C52.8075395,25.7329438 52.6246842,26.3244286 52.6246842,27.0825862 L52.6246842,32.6118807 L49.8622352,32.6118807 L49.8622352,26.9649417 C49.8048751,25.8417426 49.4159628,24.9560223 48.216323,24.8205286 C47.9547788,24.7909884 47.5507648,24.795547 47.0501654,24.9195217 C46.8633706,24.9657819 46.5533803,25.0734382 46.1201944,25.2424907 C46.1201944,25.9855687 46.1201944,26.6054697 46.1201944,27.1021937 L46.1201944,32.6118807 L43.3577454,32.6118807 L43.3577454,23.258242 C44.5816156,22.9986332 45.4628341,22.8194507 46.0014008,22.7206945 C46.8092509,22.5725603 47.5481562,22.3963382 48.2900266,22.3963382 C49.7267685,22.3963382 51.3248373,22.9764047 51.961708,24.1170872 C52.3274242,23.5680765 52.8434568,23.1316912 53.4377454,22.8375783 C54.0320341,22.5434654 54.7079457,22.3964112 55.4655005,22.3964112 Z M77.7554959,22.3731575 C78.9310119,22.3731575 80.1962721,22.7588396 80.9538269,23.4908539 C81.7113817,24.2228681 82.0901535,25.4319807 82.0901535,27.1182279 L82.0901535,32.5887 L79.3277045,32.5887 L79.3277045,27.2750873 C79.3277045,25.5365534 78.7050092,24.7808536 77.346635,24.7808536 C76.8677211,24.7808536 76.0978735,24.9270057 75.0370922,25.2193101 C75.0370922,26.1105326 75.0370922,26.8480782 75.0370922,27.4319467 L75.0370922,32.5887 L72.2746433,32.5887 L72.2746433,23.2350613 C73.5432413,22.9553228 74.4896084,22.7653732 75.1137448,22.6652125 C76.0499494,22.5149715 77.0240636,22.3731575 77.7554959,22.3731575 Z M65.0387916,32.7335183 C63.8632755,32.7335183 62.5980153,32.3478362 61.8404605,31.615822 C61.0829057,30.8838077 60.7041339,29.6746951 60.7041339,27.988448 L60.7041339,22.5179758 L63.4665829,22.5179758 L63.4665829,27.8315885 C63.4665829,29.5701224 64.0892782,30.3258222 65.4476524,30.3258222 C65.9265663,30.3258222 66.6964139,30.1796701 67.7571952,29.8873658 C67.7571952,28.9961432 67.7571952,28.2585977 67.7571952,27.6747291 L67.7571952,22.5179758 L70.5196442,22.5179758 L70.5196442,31.8716145 C69.2510462,32.151353 68.304679,32.3413026 67.6805426,32.4414633 C66.744338,32.5917043 65.7702238,32.7335183 65.0387916,32.7335183 Z M85.2244898,18.318719 C85.6816349,18.318719 86.0604067,18.4657732 86.3608163,18.7598861 C86.661226,19.053999 86.8114286,19.4232685 86.8114286,19.8677058 C86.8114286,20.312143 86.661226,20.6846804 86.3608163,20.9853291 C86.0604067,21.2859778 85.6816349,21.4362999 85.2244898,21.4362999 C84.7673447,21.4362999 84.3853077,21.2859778 84.0783673,20.9853291 C83.771427,20.6846804 83.6179592,20.312143 83.6179592,19.8677058 C83.6179592,19.4232685 83.771427,19.053999 84.0783673,18.7598861 C84.3853077,18.4657732 84.7673447,18.318719 85.2244898,18.318719 Z M83.8334694,22.5147084 L86.5959184,22.5147084 L86.5959184,32.5929259 L83.8334694,32.5929259 L83.8334694,22.5147084 Z M88.3769708,24.8237029 L88.3769708,22.4904191 L88.3769708,19.6669496 L91.1394198,19.6669496 L91.1394198,22.4904191 L93.4316647,22.4904191 L93.4316647,24.8237029 L91.1394198,24.8237029 L91.1394198,29.235374 C91.1394198,29.5883095 91.2145211,29.8432035 91.3647259,30.0000637 C91.5149307,30.1569239 91.7663568,30.2353528 92.1190116,30.2353528 L93.5492157,30.2353528 L93.5492157,32.5686366 L91.2569708,32.5686366 C89.3369612,32.5686366 88.3769708,31.6078823 88.3769708,29.6863448 L88.3769708,24.8237029 Z M96.0961545,18.2944297 C96.5532996,18.2944297 96.9320714,18.4414839 97.232481,18.7355968 C97.5328907,19.0297097 97.6830933,19.3989792 97.6830933,19.8434164 C97.6830933,20.2878537 97.5328907,20.6603911 97.232481,20.9610398 C96.9320714,21.2616885 96.5532996,21.4120106 96.0961545,21.4120106 C95.6390093,21.4120106 95.2569723,21.2616885 94.950032,20.9610398 C94.6430917,20.6603911 94.4896239,20.2878537 94.4896239,19.8434164 C94.4896239,19.3989792 94.6430917,19.0297097 94.950032,18.7355968 C95.2569723,18.4414839 95.6390093,18.2944297 96.0961545,18.2944297 Z M94.7051341,22.4904191 L97.4675831,22.4904191 L97.4675831,32.5686366 L94.7051341,32.5686366 L94.7051341,22.4904191 Z M99.0032904,27.5295279 C99.0032904,26.4837932 99.2155331,25.5720569 99.6400251,24.7942918 C100.064517,24.0165266 100.658797,23.4152382 101.422882,22.9904085 C102.186968,22.5655788 103.071857,22.3531671 104.077576,22.3531671 C105.096357,22.3531671 105.994307,22.5525073 106.771454,22.9511936 C107.5486,23.34988 108.155941,23.9119539 108.593494,24.6374324 C109.031048,25.3629108 109.256352,26.2158253 109.269413,27.1962016 C109.269413,27.549137 109.243291,27.8628527 109.191045,28.1373581 L101.88329,28.1373581 L101.88329,28.2157878 C101.948597,28.9478021 102.183697,29.5229475 102.588596,29.9412414 C102.993496,30.3595352 103.548593,30.568679 104.253903,30.568679 C104.815538,30.568679 105.282472,30.4477678 105.654719,30.2059416 C106.026966,29.9641155 106.271861,29.6079175 106.389413,29.1373369 L108.821401,30.1389752 C108.697238,30.4209392 108.539636,30.6883535 108.348596,30.9412202 C107.943697,31.4771592 107.408192,31.8987146 106.742066,32.2058992 C106.07594,32.5130838 105.311866,32.6666737 104.449821,32.6666737 C103.32655,32.6666737 102.356764,32.4575299 101.540433,32.0392361 C100.724103,31.6209422 100.09717,31.0229217 99.6596169,30.2451565 C99.2220637,29.4673913 99.0032904,28.5621908 99.0032904,27.5295279 Z M106.506964,26.3334748 C106.415535,25.7191057 106.164109,25.2452643 105.752678,24.9119363 C105.341247,24.5786084 104.822069,24.4119469 104.195127,24.4119469 C103.594308,24.4119469 103.08819,24.5851442 102.67676,24.9315438 C102.265329,25.2779434 102.020434,25.745249 101.942066,26.3334748 L106.506964,26.3334748 Z M113.023501,29.2157666 C113.062685,29.6602038 113.278193,30.0196697 113.670032,30.2941751 C114.061871,30.5686804 114.564723,30.705931 115.178603,30.705931 C115.766362,30.705931 116.23003,30.6111628 116.569624,30.4216233 C116.909217,30.2320839 117.079012,29.9608506 117.079012,29.6079151 C117.079012,29.3464815 117.000645,29.1504091 116.84391,29.0196923 C116.687174,28.8889755 116.465136,28.7942072 116.177787,28.7353846 C115.890439,28.676562 115.420239,28.6079367 114.767175,28.5295066 C113.879007,28.4118615 113.141055,28.2615394 112.553297,28.0785358 C111.965539,27.8955322 111.49534,27.6079595 111.142685,27.215809 C110.79003,26.8236585 110.613706,26.300799 110.613706,25.6472149 C110.613706,24.9936307 110.793296,24.4152174 111.152481,23.9119576 C111.511666,23.4086977 112.017784,23.019821 112.670848,22.7453156 C113.323913,22.4708103 114.074926,22.3335597 114.92391,22.3335597 C116.295345,22.3466314 117.402273,22.6407398 118.244726,23.2158939 C119.087179,23.791048 119.541052,24.5884087 119.606359,25.608 L116.981052,25.608 C116.941869,25.2289212 116.742687,24.9184734 116.383501,24.6766472 C116.024316,24.4348211 115.563912,24.3139098 115.002277,24.3139098 C114.479825,24.3139098 114.058605,24.411946 113.738603,24.6080212 C113.418602,24.8040965 113.258603,25.0655262 113.258603,25.3923183 C113.258603,25.6276086 113.343501,25.8040737 113.513297,25.9217188 C113.683094,26.039364 113.905133,26.1243287 114.17942,26.1766154 C114.453707,26.2289021 114.910845,26.2877238 115.550848,26.3530822 C116.909223,26.5099424 117.950845,26.800783 118.675746,27.2256127 C119.400648,27.6504424 119.763093,28.3791779 119.763093,29.4118408 C119.763093,30.065425 119.570442,30.6405705 119.185134,31.1372944 C118.799826,31.6340184 118.264321,32.0163594 117.578603,32.2843289 C116.892886,32.5522984 116.099424,32.6862812 115.198195,32.6862812 C113.800637,32.6862812 112.664322,32.3758333 111.789216,31.7549284 C111.186712,31.3274401 110.779238,30.7930723 110.56679,30.1518168 L113.023501,29.2157666 Z" id="Communities"></path>
                <path d="M13.5967347,7.41160743 C13.5967347,8.73184745 13.3093906,9.92462067 12.7346939,10.9899629 C12.1599971,12.0553051 11.3567399,12.8886124 10.324898,13.4899098 C9.29305607,14.0912073 8.11755762,14.3918515 6.79836735,14.3918515 C5.47917708,14.3918515 4.30367863,14.0912073 3.27183673,13.4899098 C2.23999484,12.8886124 1.43673757,12.0553051 0.862040816,10.9899629 C0.287344065,9.92462067 -2.27373675e-13,8.73184745 -2.27373675e-13,7.41160743 C-2.27373675e-13,6.0913674 0.287344065,4.89859419 0.862040816,3.83325199 C1.43673757,2.76790979 2.23999484,1.93460248 3.27183673,1.33330504 C4.30367863,0.732007604 5.47917708,0.431363395 6.79836735,0.431363395 C8.11755762,0.431363395 9.29305607,0.732007604 10.324898,1.33330504 C11.3567399,1.93460248 12.1599971,2.76790979 12.7346939,3.83325199 C13.3093906,4.89859419 13.5967347,6.0913674 13.5967347,7.41160743 Z M2.99755102,7.41160743 C2.99755102,8.27433853 3.15428415,9.04555628 3.4677551,9.72528382 C3.78122606,10.4050114 4.22530325,10.9376745 4.8,11.3232891 C5.37469675,11.7089038 6.04081254,11.9017082 6.79836735,11.9017082 C7.54286087,11.9017082 8.20244611,11.7089038 8.77714286,11.3232891 C9.35183961,10.9376745 9.7959168,10.4050114 10.1093878,9.72528382 C10.4228587,9.04555628 10.5795918,8.27433853 10.5795918,7.41160743 C10.5795918,6.54887632 10.4228587,5.77765857 10.1093878,5.09793103 C9.7959168,4.4182035 9.35183961,3.88554039 8.77714286,3.49992573 C8.20244611,3.11431107 7.54286087,2.92150663 6.79836735,2.92150663 C6.04081254,2.92150663 5.37469675,3.11431107 4.8,3.49992573 C4.22530325,3.88554039 3.78122606,4.4182035 3.4677551,5.09793103 C3.15428415,5.77765857 2.99755102,6.54887632 2.99755102,7.41160743 Z M20.6449342,4.0586644 C21.8204503,4.0586644 23.0857105,4.44434647 23.8432653,5.17636074 C24.6008201,5.90837501 24.9795918,7.11748759 24.9795918,8.80373475 L24.9795918,14.2742069 L22.2171429,14.2742069 L22.2171429,8.96059416 C22.2171429,7.22206027 21.5944476,6.46636046 20.2360734,6.46636046 C19.7571595,6.46636046 18.9873119,6.61251263 17.9265306,6.90481695 C17.9265306,7.79603951 17.9265306,8.53358506 17.9265306,9.11745358 L17.9265306,14.2742069 L15.1640816,14.2742069 L15.1640816,4.92056823 C16.4326796,4.6408297 17.3790468,4.45088009 18.0031832,4.3507194 C18.9393878,4.20047837 19.913502,4.0586644 20.6449342,4.0586644 Z M41.4612608,4.0586644 C42.6367768,4.0586644 43.902037,4.44434647 44.6595918,5.17636074 C45.4171466,5.90837501 45.7959184,7.11748759 45.7959184,8.80373475 L45.7959184,14.2742069 L43.0334694,14.2742069 L43.0334694,8.96059416 C43.0334694,7.22206027 42.4107741,6.46636046 41.0524,6.46636046 C40.573486,6.46636046 39.8036384,6.61251263 38.7428571,6.90481695 C38.7428571,7.79603951 38.7428571,8.53358506 38.7428571,9.11745358 L38.7428571,14.2742069 L35.9804082,14.2742069 L35.9804082,4.92056823 C37.2490062,4.6408297 38.1953734,4.45088009 38.8195097,4.3507194 C39.7557143,4.20047837 40.7298285,4.0586644 41.4612608,4.0586644 Z M26.7232653,0.549007958 L29.4857143,0.549007958 L29.4857143,14.2742069 L26.7232653,14.2742069 L26.7232653,0.549007958 Z M32.7967347,0 C33.2538798,0 33.6326516,0.147054232 33.9330612,0.441167109 C34.2334709,0.735279985 34.3836735,1.1045495 34.3836735,1.54898674 C34.3836735,1.99342397 34.2334709,2.36596136 33.9330612,2.66661008 C33.6326516,2.9672588 33.2538798,3.1175809 32.7967347,3.1175809 C32.3395896,3.1175809 31.9575526,2.9672588 31.6506122,2.66661008 C31.3436719,2.36596136 31.1902041,1.99342397 31.1902041,1.54898674 C31.1902041,1.1045495 31.3436719,0.735279985 31.6506122,0.441167109 C31.9575526,0.147054232 32.3395896,0 32.7967347,0 Z M31.4057143,4.19598939 L34.1681633,4.19598939 L34.1681633,14.2742069 L31.4057143,14.2742069 L31.4057143,4.19598939 Z M47.2555102,9.25470557 C47.2555102,8.2089709 47.467753,7.29723466 47.8922449,6.5194695 C48.3167368,5.74170433 48.9110166,5.14041592 49.675102,4.71558621 C50.4391875,4.2907565 51.3240766,4.07834483 52.3297959,4.07834483 C53.3485765,4.07834483 54.2465267,4.27768501 55.0236735,4.67637135 C55.8008202,5.0750577 56.4081611,5.63713165 56.8457143,6.36261008 C57.2832675,7.08808851 57.5085714,7.94100306 57.5216327,8.92137931 C57.5216327,9.27431476 57.4955105,9.58803046 57.4432653,9.86253581 L50.1355102,9.86253581 L50.1355102,9.94096552 C50.2008167,10.6729798 50.4359163,11.2481252 50.8408163,11.6664191 C51.2457163,12.084713 51.8008128,12.2938568 52.5061224,12.2938568 C53.0677579,12.2938568 53.534692,12.1729455 53.9069388,11.9311194 C54.2791855,11.6892932 54.524081,11.3330952 54.6416327,10.8625146 L57.073621,11.864153 C56.9494575,12.1461169 56.7918562,12.4135312 56.6008163,12.6663979 C56.1959163,13.2023369 55.6604115,13.6238924 54.9942857,13.9310769 C54.3281599,14.2382615 53.5640859,14.3918515 52.7020408,14.3918515 C51.5787699,14.3918515 50.6089837,14.1827077 49.7926531,13.7644138 C48.9763224,13.3461199 48.3493899,12.7480994 47.9118367,11.9703342 C47.4742835,11.1925691 47.2555102,10.2873686 47.2555102,9.25470557 Z M54.7591837,8.05865252 C54.6677546,7.4442834 54.4163286,6.97044198 54.004898,6.63711406 C53.5934673,6.30378613 53.0742888,6.13712467 52.4473469,6.13712467 C51.8465276,6.13712467 51.3404102,6.31032188 50.9289796,6.65672149 C50.517549,7.0031211 50.2726535,7.47042677 50.1942857,8.05865252 L54.7591837,8.05865252 Z" id="Online"></path>
            </g>
            <polyline id="Path-7" stroke="#383E41" opacity="0.200000003" points="60.5 9 60.5 24.6339865 60.5 41"></polyline>
        </g>
    </g>
</svg>