<?xml version="1.0" encoding="UTF-8"?>
<svg width="152px" height="48px" viewBox="0 0 152 48" version="1.1" xmlns="http://www.w3.org/2000/svg" xmlns:xlink="http://www.w3.org/1999/xlink">
    <!-- Generator: Sketch 55 (78076) - https://sketchapp.com -->
    <title>logo-white copy</title>
    <desc>Created with Sketch.</desc>
    <g id="Page-1" stroke="none" stroke-width="1" fill="none" fill-rule="evenodd">
        <g id="online-communities-copy" transform="translate(-1359.000000, -1336.000000)" fill-rule="nonzero">
            <g id="logo-white-copy" transform="translate(1359.000000, 1336.000000)">
                <path d="M47.5507492,23.7624742 C47.5507492,36.886268 36.9062932,47.5254433 23.7748795,47.5254433 C10.6439609,47.5254433 0,36.886268 0,23.7624742 C0,10.6391753 10.6439609,0 23.7748795,0 C36.9062932,0 47.5507492,10.6391753 47.5507492,23.7624742" id="Fill-1" fill="#CACACA"></path>
                <path d="M14.5423899,26.1124948 C14.5770478,23.3101856 16.5718622,20.9730309 19.1697254,20.4623505 L18.4889436,24.1509278 C18.369126,24.7877938 18.2993149,25.4429691 18.2904029,26.1124948 C18.264657,28.2150928 18.8186895,30.1806186 19.7995104,31.8536907 C16.8382335,31.6973196 14.503771,29.1859794 14.5423899,26.1124948 M29.1809306,15.0947629 C27.7906505,15.0947629 26.4578035,15.3698969 25.2304159,15.8647423 L25.408657,14.8997938 C25.408657,14.8997938 26.6093084,9.71430928 21.6878752,9.40206186 C21.2952498,9.40404124 21.1724615,9.60593814 21.1219599,9.87810309 L20.158468,15.1016907 C18.8181944,15.12 17.5338687,15.3867216 16.3480706,15.8647423 L16.5263117,14.8997938 C16.5263117,14.8997938 17.7269632,9.71430928 12.8055299,9.40206186 C12.414885,9.40354639 12.2911065,9.60395876 12.2411,9.87364948 L9.60659833,24.1509278 C9.48678074,24.7877938 9.41597944,25.4429691 9.40805762,26.1124948 C9.33230517,32.1872165 14.0938166,37.129732 20.0223117,37.129732 C25.9522921,37.129732 30.837582,32.1872165 30.9138296,26.1124948 C30.9341293,24.473567 30.5360576,23.3665979 29.8290348,22.7203299 C28.8794062,21.8533608 27.2143377,22.0250722 26.4137384,23.0974021 C25.6730478,24.0875876 25.7859338,25.6037938 25.7790022,26.1124948 C25.7626635,27.4352165 25.3051781,28.6515464 24.5585462,29.6249072 C23.8356798,28.6515464 23.4088915,27.4352165 23.4252303,26.1124948 C23.4648394,22.9380619 26.0181423,20.3559588 29.1155755,20.3559588 C32.2135039,20.3559588 34.7014518,22.9380619 34.6623377,26.1124948 C34.6360967,28.1774845 33.5458557,29.9910928 31.9342596,31.0065155 C31.8228589,31.0762887 31.5342075,31.2489897 31.3069501,31.4974021 C31.1123703,31.7106804 30.9732433,31.9991753 30.9108589,32.1134845 C29.9577645,33.868701 28.6125397,35.3715464 27.0014387,36.499299 C26.9098426,36.5636289 26.7459599,36.6878351 26.7974518,36.8145155 C26.8449827,36.9308041 27.1078882,36.9733608 27.2227547,36.9916701 C27.7703508,37.0822268 28.3323052,37.129732 28.9056472,37.129732 C34.8341423,37.129732 39.7204224,32.1872165 39.7961749,26.1124948 C39.8724224,20.0377732 35.110911,15.0947629 29.1809306,15.0947629" id="Fill-4" fill="#FEFEFE"></path>
                <path d="M61.025772,25.1445773 C60.9480391,23.9376495 60.3633094,23.2374433 59.1171075,23.2374433 C58.2600651,23.2374433 57.4035179,23.5482062 57.0722866,23.7624742 L57.0722866,28.3561237 C57.3842085,28.6287835 58.2600651,28.9598351 58.9616417,28.9598351 C60.2271531,28.9598351 60.9287296,28.2398351 61.025772,26.9745155 C61.0653811,26.4484948 61.0460717,25.5726186 61.025772,25.1445773 M63.6350228,27.4030515 C63.4211336,29.7773196 61.7268534,31.4513814 59.0200651,31.4513814 C57.0336678,31.4513814 55.4948534,30.6145979 54.9294332,30.2251546 C54.5788925,29.9915876 54.4625407,29.7382268 54.4625407,29.3101856 L54.4625407,18.6625979 C54.4625407,17.9030103 55.0274658,17.3195876 55.7676612,17.3195876 C56.4885472,17.3195876 57.0722866,17.9030103 57.0722866,18.6625979 L57.0722866,21.2318351 C57.6565212,20.9789691 58.5912964,20.7449072 59.3701107,20.7449072 C61.9407427,20.7449072 63.4028143,22.3026804 63.6350228,24.7160412 C63.6949316,25.4365361 63.6949316,26.7013608 63.6350228,27.4030515" id="Fill-6" fill="#CACACA"></path>
                <path d="M65.8501629,22.1656082 C65.8501629,21.3872165 66.3175505,20.7835052 67.1364691,20.7835052 C67.8756743,20.7835052 68.4594137,21.3872165 68.4594137,22.1656082 L68.4594137,27.1294021 C68.4594137,28.297732 69.2199088,28.9395464 70.3304495,28.9395464 C71.1865016,28.9395464 71.8291596,28.6866804 72.2386189,28.4338144 L72.2386189,22.1270103 C72.2386189,21.3872165 72.7832443,20.7835052 73.5442345,20.7835052 C74.2641303,20.7835052 74.8478697,21.3872165 74.8478697,22.1270103 L74.8478697,29.4066804 C74.8478697,29.8545155 74.7310228,30.1078763 74.3804821,30.3216495 C73.7774332,30.7506804 72.3559609,31.4315876 70.2720261,31.4315876 C67.4667101,31.4315876 65.8501629,29.9129072 65.8501629,27.1684948 L65.8501629,22.1656082 Z" id="Fill-8" fill="#CACACA"></path>
                <path d="M81.9559739,28.9598351 C82.6377459,28.9598351 83.5343974,28.6287835 83.845329,28.3561237 L83.845329,23.7624742 C83.5136026,23.5482062 82.6570554,23.2374433 81.8005081,23.2374433 C80.5528208,23.2374433 79.9695765,23.9376495 79.8913485,25.1252784 C79.8527296,25.5726186 79.8527296,26.4875876 79.8913485,27.0131134 C79.9695765,28.278433 80.6899674,28.9598351 81.9559739,28.9598351 M81.5470098,20.7449072 C82.3263192,20.7449072 83.2605993,20.9789691 83.845329,21.2318351 L83.845329,18.6625979 C83.845329,17.9030103 84.4295635,17.3195876 85.1499544,17.3195876 C85.890645,17.3195876 86.45557,17.9030103 86.45557,18.6625979 L86.45557,29.3294845 C86.45557,29.7580206 86.3387231,30.0108866 85.9876873,30.2449485 C85.4420717,30.6338969 83.884443,31.4513814 81.8970554,31.4513814 C79.1902671,31.4513814 77.495987,29.7773196 77.2816026,27.4030515 C77.2231792,26.7216495 77.2231792,25.4172371 77.2816026,24.7160412 C77.495987,22.3026804 78.9763779,20.7449072 81.5470098,20.7449072" id="Fill-10" fill="#CACACA"></path>
                <path d="M93.3433485,28.9598351 C94.0251205,28.9598351 94.921772,28.6287835 95.2327036,28.3561237 L95.2327036,23.7624742 C94.9009772,23.5482062 94.0454202,23.2374433 93.188873,23.2374433 C91.9411857,23.2374433 91.3569511,23.9376495 91.2797134,25.1252784 C91.2401042,25.5726186 91.2401042,26.4875876 91.2797134,27.0131134 C91.3569511,28.278433 92.077342,28.9598351 93.3433485,28.9598351 M92.9343844,20.7449072 C93.7136938,20.7449072 94.6479739,20.9789691 95.2327036,21.2318351 L95.2327036,18.6625979 C95.2327036,17.9030103 95.8169381,17.3195876 96.537329,17.3195876 C97.2780195,17.3195876 97.8429446,17.9030103 97.8429446,18.6625979 L97.8429446,29.3294845 C97.8429446,29.7580206 97.7270879,30.0108866 97.3745668,30.2449485 C96.8294463,30.6338969 95.2718176,31.4513814 93.2854202,31.4513814 C90.5786319,31.4513814 88.8833616,29.7773196 88.6699674,27.4030515 C88.6105537,26.7216495 88.6105537,25.4172371 88.6699674,24.7160412 C88.8833616,22.3026804 90.3637524,20.7449072 92.9343844,20.7449072" id="Fill-12" fill="#CACACA"></path>
                <path d="M99.6466862,22.7109278 C99.2174223,21.7187629 99.919494,20.7835052 100.893383,20.7835052 C101.496432,20.7835052 101.983129,21.1150515 102.236132,21.7964536 L104.379481,27.324866 C104.4181,27.4223505 104.456719,27.4416495 104.495338,27.4416495 C104.534947,27.4416495 104.573566,27.4416495 104.612185,27.324866 L106.637201,21.7964536 C106.87139,21.1546392 107.358582,20.7835052 107.982426,20.7835052 C108.993943,20.7835052 109.656406,21.7573608 109.228132,22.7307216 L105.586074,31.1985155 C104.768145,33.1056495 103.736328,34.3318763 102.996628,34.8188041 C102.70352,35.0132784 102.294556,35.1884536 101.925201,35.1884536 C101.224119,35.1884536 100.619585,34.7213196 100.619585,33.9622268 C100.619585,33.5143918 100.83397,33.1838351 101.204315,32.9111753 C101.788549,32.502433 102.547559,31.7621443 102.996628,30.5171134 L99.6466862,22.7109278 Z" id="Fill-14" fill="#CACACA"></path>
                <path d="M117.963883,25.1445773 C117.885655,23.9376495 117.30142,23.2374433 116.055218,23.2374433 C115.198176,23.2374433 114.341629,23.5482062 114.010893,23.7624742 L114.010893,28.3561237 C114.322319,28.6287835 115.198176,28.9598351 115.900248,28.9598351 C117.166254,28.9598351 117.866345,28.2398351 117.963883,26.9745155 C118.003492,26.4484948 117.983192,25.5726186 117.963883,25.1445773 M120.573629,27.4030515 C120.360235,29.7773196 118.664964,31.4513814 115.958176,31.4513814 C113.971779,31.4513814 112.432469,30.6145979 111.868534,30.2251546 C111.517498,29.9915876 111.400651,29.7382268 111.400651,29.3101856 L111.400651,18.6625979 C111.400651,17.9030103 111.965577,17.3195876 112.706267,17.3195876 C113.425668,17.3195876 114.010893,17.9030103 114.010893,18.6625979 L114.010893,21.2318351 C114.594632,20.9789691 115.528912,20.7449072 116.308221,20.7449072 C118.879844,20.7449072 120.340925,22.3026804 120.573629,24.7160412 C120.632052,25.4365361 120.632052,26.7013608 120.573629,27.4030515" id="Fill-16" fill="#CACACA"></path>
                <path d="M129.571459,25.1638763 C129.512541,24.054433 128.734221,23.2760412 127.506834,23.2760412 C126.279941,23.2760412 125.520436,24.054433 125.421909,25.1638763 C125.38428,25.6894021 125.38428,26.6043711 125.421909,27.1105979 C125.520436,28.2195464 126.279941,28.998433 127.506834,28.998433 C128.734221,28.998433 129.493231,28.2195464 129.571459,27.1105979 C129.610078,26.6043711 129.610078,25.6894021 129.571459,25.1638763 M127.506834,31.4899794 C124.956007,31.4899794 123.027537,29.8545155 122.832463,27.5381443 C122.773544,26.7602474 122.773544,25.5335258 122.832463,24.7546392 C123.027537,22.4189691 124.956007,20.7835052 127.506834,20.7835052 C130.077466,20.7835052 131.966821,22.4189691 132.160906,24.7546392 C132.220319,25.5335258 132.220319,26.7404536 132.160906,27.5193402 C131.966821,29.8545155 130.077466,31.4899794 127.506834,31.4899794" id="Fill-18" fill="#CACACA"></path>
                <path d="M141.916695,28.102268 C141.916695,30.2830515 140.105568,31.4899794 137.846363,31.4899794 C136.015926,31.4899794 134.847952,30.9639588 134.126571,30.3607423 C133.659183,29.971299 133.523027,29.2315052 133.893372,28.7450722 C134.282037,28.2190515 134.944499,28.102268 135.586662,28.5115052 C136.191196,28.9004536 136.989815,29.1543093 137.905281,29.1543093 C138.917789,29.1543093 139.385177,28.7836701 139.385177,28.2586392 C139.385177,27.8305979 139.07276,27.5376495 138.256317,27.3431753 C137.554245,27.1877938 137.574545,27.2075876 136.814545,27.0131134 C135.218297,26.6043711 133.9716,25.708701 133.9716,24.0346392 C133.9716,21.9320412 135.66489,20.7835052 137.944395,20.7835052 C139.171288,20.7835052 140.436304,21.0952577 141.119066,21.6593814 C141.683496,22.1275052 141.644877,22.9251959 141.235913,23.3923299 C140.846258,23.8203711 140.183796,23.8792577 139.541633,23.5477113 C139.035131,23.2948454 138.353359,23.1196701 137.846363,23.1196701 C136.872473,23.1196701 136.464499,23.4898144 136.464499,23.9564536 C136.464499,24.3651959 136.755626,24.6378557 137.631978,24.8328247 L139.015822,25.1435876 C140.963105,25.6112165 141.916695,26.5652784 141.916695,28.102268" id="Fill-20" fill="#CACACA"></path>
                <path d="M151.819475,28.102268 C151.819475,30.2830515 150.008348,31.4899794 147.749143,31.4899794 C145.917716,31.4899794 144.749742,30.9639588 144.029351,30.3607423 C143.560973,29.971299 143.425807,29.2315052 143.795162,28.7450722 C144.184817,28.2190515 144.84728,28.102268 145.489442,28.5115052 C146.092986,28.9004536 146.892596,29.1543093 147.807566,29.1543093 C148.819579,29.1543093 149.287957,28.7836701 149.287957,28.2586392 C149.287957,27.8305979 148.97554,27.5376495 148.158107,27.3431753 C147.45653,27.1877938 147.47683,27.2075876 146.716335,27.0131134 C145.120087,26.6043711 143.87339,25.708701 143.87339,24.0346392 C143.87339,21.9320412 145.56668,20.7835052 147.846185,20.7835052 C149.073078,20.7835052 150.340074,21.0952577 151.020856,21.6593814 C151.586276,22.1275052 151.546667,22.9251959 151.137703,23.3923299 C150.748048,23.8203711 150.085586,23.8792577 149.443423,23.5477113 C148.937911,23.2948454 148.255149,23.1196701 147.749143,23.1196701 C146.775749,23.1196701 146.366289,23.4898144 146.366289,23.9564536 C146.366289,24.3651959 146.658407,24.6378557 147.534758,24.8328247 L148.917612,25.1435876 C150.864895,25.6112165 151.819475,26.5652784 151.819475,28.102268" id="Fill-22" fill="#CACACA"></path>
            </g>
        </g>
    </g>
</svg>